# xmcd CD database file
#
# Track frame offsets:
#	150
#	23232
#	48036
#	72168
#	82086
#	109572
#	146092
#	171629
#	203433
#	225641
#	246505
#	259979
#	283985
#	297743
#	315376
#
# Disc length: 4551 seconds
#
# Revision: 0
# Processed by: cddbd v1.5.2PL0 Copyright (c) Steve Scherf et al.
# Submitted via: CDex 1.70beta2
#
DISCID=e611c50f
DTITLE=Menphis La Blusera - Grandes Exitos vol 3
DYEAR=1900
DGENRE=Blues
TTITLE0=Blues del Estibador
TTITLE1=Nunca Tuve Tanto Blues
TTITLE2=Ya no me Toques
TTITLE3=Hache Roja
TTITLE4=La Sirenita y El Lobo de Mar
TTITLE5=Eugenia
TTITLE6=Exactamente Media Noche
TTITLE7=Lo Unico Importante es el Blue
TTITLE8=John Henry
TTITLE9=La Ultima Lagrima
TTITLE10=Que Mujer
TTITLE11=Pais Del Pegamento
TTITLE12=Un Trago Para Ver Mejor
TTITLE13=El Estibador
TTITLE14=Lobo de Mar
EXTD=
EXTT0=
EXTT1=
EXTT2=
EXTT3=
EXTT4=
EXTT5=
EXTT6=
EXTT7=
EXTT8=
EXTT9=
EXTT10=
EXTT11=
EXTT12=
EXTT13=
EXTT14=
PLAYORDER=
